<?xml version="1.0" encoding="utf-8"?>
<svg viewBox="0 0 500 500" xmlns="http://www.w3.org/2000/svg" xmlns:bx="https://boxy-svg.com">
  <defs>
    <bx:guide x="230.678" y="250.446" angle="90"/>
  </defs>
  <title>font-flat</title>
  <title>image-flat</title>
  <g transform="matrix(1.171764, 0, 0, 1.171764, -79.166695, 197.216324)" style="">
    <path d="M 272.916 5.166 L 400.916 5.166 C 407.074 5.166 410.923 -1.5 407.844 -6.834 C 406.415 -9.309 403.774 -10.834 400.916 -10.834 L 272.916 -10.834 C 266.757 -10.834 262.908 -4.167 265.987 1.166 C 267.416 3.642 270.057 5.166 272.916 5.166 Z" style="fill: rgb(108, 117, 125);"/>
    <path d="M 272.916 37.166 L 304.916 37.166 C 311.074 37.166 314.923 30.5 311.844 25.166 C 310.415 22.691 307.774 21.166 304.916 21.166 L 272.916 21.166 C 266.757 21.166 262.908 27.833 265.987 33.166 C 267.416 35.642 270.057 37.166 272.916 37.166 Z" style="fill: rgb(108, 117, 125);"/>
    <path d="M 272.916 69.166 L 400.916 69.166 C 407.074 69.166 410.923 62.5 407.844 57.166 C 406.415 54.691 403.774 53.166 400.916 53.166 L 272.916 53.166 C 266.757 53.166 262.908 59.833 265.987 65.166 C 267.416 67.642 270.057 69.166 272.916 69.166 Z" style="fill: rgb(108, 117, 125);"/>
    <path d="M 160.916 101.166 L 344.916 101.166 C 351.074 101.166 354.923 94.5 351.844 89.166 C 350.415 86.691 347.774 85.166 344.916 85.166 L 160.916 85.166 C 154.757 85.166 150.908 91.833 153.987 97.166 C 155.416 99.642 158.057 101.166 160.916 101.166 Z" style="fill: rgb(108, 117, 125);"/>
    <path d="M 400.916 21.166 L 336.916 21.166 C 330.757 21.166 326.908 27.833 329.987 33.166 C 331.416 35.642 334.057 37.166 336.916 37.166 L 400.916 37.166 C 407.074 37.166 410.923 30.5 407.844 25.166 C 406.415 22.691 403.774 21.166 400.916 21.166 Z" style="fill: rgb(108, 117, 125);"/>
    <path d="M 400.916 85.166 L 376.916 85.166 C 370.757 85.166 366.908 91.833 369.987 97.166 C 371.416 99.642 374.057 101.166 376.916 101.166 L 400.916 101.166 C 407.074 101.166 410.923 94.5 407.844 89.166 C 406.415 86.691 403.774 85.166 400.916 85.166 Z" style="fill: rgb(108, 117, 125);"/>
    <path d="M 160.916 133.166 L 208.916 133.166 C 215.074 133.166 218.923 126.5 215.844 121.166 C 214.415 118.691 211.774 117.166 208.916 117.166 L 160.916 117.166 C 154.757 117.166 150.908 123.833 153.987 129.166 C 155.416 131.642 158.057 133.166 160.916 133.166 Z" style="fill: rgb(108, 117, 125);"/>
    <path d="M 320.916 117.166 L 240.916 117.166 C 234.757 117.166 230.908 123.833 233.987 129.166 C 235.416 131.642 238.057 133.166 240.916 133.166 L 320.916 133.166 C 327.074 133.166 330.923 126.5 327.844 121.166 C 326.415 118.691 323.774 117.166 320.916 117.166 Z" style="fill: rgb(108, 117, 125);"/>
    <path d="M 400.916 117.166 L 352.916 117.166 C 346.757 117.166 342.908 123.833 345.987 129.166 C 347.416 131.642 350.057 133.166 352.916 133.166 L 400.916 133.166 C 407.074 133.166 410.923 126.5 407.844 121.166 C 406.415 118.691 403.774 117.166 400.916 117.166 Z" style="fill: rgb(108, 117, 125);"/>
    <path d="M 160.916 69.166 L 240.916 69.166 C 245.334 69.166 248.916 65.585 248.916 61.166 L 248.916 -34.834 C 248.916 -39.252 245.334 -42.834 240.916 -42.834 L 160.916 -42.834 C 156.497 -42.834 152.916 -39.252 152.916 -34.834 L 152.916 61.166 C 152.916 65.585 156.497 69.166 160.916 69.166 Z M 168.916 -26.834 L 232.916 -26.834 L 232.916 53.166 L 168.916 53.166 Z" style="fill: rgb(108, 117, 125);"/>
    <path d="M 272.916 -26.834 L 336.916 -26.834 C 343.074 -26.834 346.923 -33.5 343.844 -38.834 C 342.415 -41.309 339.774 -42.834 336.916 -42.834 L 272.916 -42.834 C 266.757 -42.834 262.908 -36.167 265.987 -30.834 C 267.416 -28.358 270.057 -26.834 272.916 -26.834 Z" style="fill: rgb(108, 117, 125);"/>
  </g>
</svg>