<?xml version="1.0" encoding="utf-8"?>
<svg viewBox="0 0 500 500" xmlns="http://www.w3.org/2000/svg" xmlns:bx="https://boxy-svg.com">
  <defs>
    <bx:guide x="471.463" y="250.149" angle="90"/>
    <bx:guide x="250.297" y="5.797" angle="0"/>
  </defs>
  <title>pdf-flat</title>
  <path d="M 304.791 263.586 C 294.916 255.815 285.531 247.826 279.281 241.576 C 271.156 233.451 263.916 225.576 257.625 218.076 C 267.438 187.753 271.74 172.118 271.74 163.784 C 271.74 128.378 258.948 121.117 239.74 121.117 C 225.146 121.117 207.74 128.7 207.74 164.805 C 207.74 180.722 216.459 200.045 233.74 222.503 C 229.511 235.409 224.542 250.295 218.959 267.076 C 216.271 275.128 213.355 282.586 210.271 289.482 C 207.761 290.597 205.323 291.732 202.969 292.909 C 194.49 297.149 186.438 300.961 178.969 304.503 C 144.906 320.628 122.406 331.295 122.406 352.357 C 122.406 367.649 139.021 377.117 154.406 377.117 C 174.239 377.117 204.187 350.627 226.062 306.002 C 248.77 297.044 277 290.408 299.281 286.252 C 317.135 299.981 336.854 313.117 346.406 313.117 C 372.854 313.117 378.406 297.825 378.406 285.002 C 378.406 259.783 349.593 259.783 335.739 259.783 C 331.437 259.784 319.896 261.055 304.791 263.586 Z M 154.406 355.784 C 148.312 355.784 144.187 352.909 143.739 352.357 C 143.739 344.794 166.291 334.107 188.104 323.774 C 189.489 323.118 190.896 322.461 192.323 321.784 C 176.302 345.014 160.458 355.784 154.406 355.784 Z M 229.073 164.805 C 229.073 142.451 236.011 142.451 239.74 142.451 C 247.282 142.451 250.407 142.451 250.407 163.784 C 250.407 168.284 247.407 179.534 241.917 197.097 C 233.541 184.201 229.073 173.149 229.073 164.805 Z M 237.25 279.451 C 237.917 277.597 238.563 275.722 239.188 273.826 C 243.146 261.951 246.709 251.284 249.886 241.68 C 254.313 246.555 259.084 251.545 264.199 256.659 C 266.199 258.659 271.157 263.159 277.762 268.794 C 264.614 271.659 250.625 275.211 237.25 279.451 Z M 357.073 285.003 C 357.073 289.795 357.073 291.784 347.177 291.847 C 344.271 291.222 337.552 287.264 329.26 281.618 C 332.27 281.285 334.489 281.118 335.739 281.118 C 351.5 281.118 355.969 282.659 357.073 285.003 Z" style="fill: rgb(108, 117, 125);"/>
</svg>