<?xml version="1.0" encoding="utf-8"?>
<svg viewBox="0 0 500 500" xmlns="http://www.w3.org/2000/svg" xmlns:bx="https://boxy-svg.com">
  <defs>
    <bx:guide x="224.732" y="250.446" angle="90"/>
    <bx:guide x="250.297" y="248.068" angle="0"/>
  </defs>
  <title>presentation-flat</title>
  <g style="" transform="matrix(1.252209, 0, 0, 1.252209, -88.270699, -33.21661)">
    <path d="M 205.943 242.524 C 205.943 304.108 272.61 342.598 325.943 311.806 C 379.276 281.014 379.276 204.034 325.943 173.242 C 313.781 166.221 299.986 162.524 285.943 162.524 C 281.525 162.524 277.943 166.106 277.943 170.524 L 277.943 234.524 L 213.943 234.524 C 209.525 234.524 205.943 238.106 205.943 242.524 Z M 285.943 250.524 C 290.361 250.524 293.943 246.943 293.943 242.524 L 293.943 179.024 C 342.824 185.185 366.705 241.949 336.93 281.201 C 307.155 320.453 246.054 312.753 226.949 267.341 C 224.688 261.967 223.172 256.309 222.443 250.524 Z" style="fill: rgb(108, 117, 125);"/>
    <path d="M 181.943 218.524 L 253.943 218.524 C 258.361 218.524 261.943 214.943 261.943 210.524 L 261.943 138.524 C 261.943 134.106 258.361 130.524 253.943 130.524 C 209.781 130.575 173.993 166.362 173.943 210.524 C 173.943 214.943 177.525 218.524 181.943 218.524 Z M 245.943 147.024 L 245.943 202.524 L 190.443 202.524 C 194.143 173.543 216.961 150.724 245.943 147.024 Z" style="fill: rgb(108, 117, 125);"/>
  </g>
</svg>