<?xml version="1.0" encoding="utf-8"?>
<svg viewBox="0 0 500 500" xmlns="http://www.w3.org/2000/svg" xmlns:bx="https://boxy-svg.com">
  <defs>
    <bx:guide x="262.485" y="250.446" angle="90"/>
  </defs>
  <title>excel-flat</title>
  <g transform="matrix(1.170861, 0, 0, 1.170861, -563.852783, -101.81543)" style="visibility: hidden;">
    <path class="cls-5" d="M 644 284.719 L 644 310.319 L 592.8 310.319 L 592.8 284.719 L 644 284.719 M 669.6 259.119 L 567.2 259.119 L 567.2 335.919 L 669.6 335.919 L 669.6 259.119 Z" style="fill: rgb(108, 117, 125);"/>
    <path class="cls-5" d="M 644 335.919 L 644 361.519 L 592.8 361.519 L 592.8 335.919 L 644 335.919 M 669.6 310.319 L 567.2 310.319 L 567.2 387.119 L 669.6 387.119 L 669.6 310.319 Z" style="fill: rgb(108, 117, 125);"/>
    <path class="cls-5" d="M 720.8 233.519 L 720.8 259.119 L 669.6 259.119 L 669.6 233.519 L 720.8 233.519 M 746.4 207.919 L 644 207.919 L 644 284.719 L 746.4 284.719 L 746.4 207.919 Z" style="fill: rgb(108, 117, 125);"/>
    <path class="cls-5" d="M 720.8 284.719 L 720.8 310.319 L 669.6 310.319 L 669.6 284.719 L 720.8 284.719 M 746.4 259.119 L 644 259.119 L 644 335.919 L 746.4 335.919 L 746.4 259.119 Z" style="fill: rgb(108, 117, 125);"/>
    <path class="cls-5" d="M 644 233.519 L 644 259.119 L 592.8 259.119 L 592.8 233.519 L 644 233.519 M 669.6 207.919 L 567.2 207.919 L 567.2 284.719 L 669.6 284.719 L 669.6 207.919 Z" style="fill: rgb(108, 117, 125);"/>
    <path class="cls-5" d="M 720.8 335.919 L 720.8 361.519 L 669.6 361.519 L 669.6 335.919 L 720.8 335.919 M 746.4 310.319 L 644 310.319 L 644 387.119 L 746.4 387.119 L 746.4 310.319 Z" style="fill: rgb(108, 117, 125);"/>
    <path class="cls-5" d="M 797.6 233.519 L 797.6 259.119 L 746.4 259.119 L 746.4 233.519 L 797.6 233.519 M 823.2 207.919 L 720.8 207.919 L 720.8 284.719 L 823.2 284.719 L 823.2 207.919 Z" style="fill: rgb(108, 117, 125);"/>
    <path class="cls-5" d="M 797.6 284.719 L 797.6 310.319 L 746.4 310.319 L 746.4 284.719 L 797.6 284.719 M 823.2 259.119 L 720.8 259.119 L 720.8 335.919 L 823.2 335.919 L 823.2 259.119 Z" style="fill: rgb(108, 117, 125);"/>
    <path class="cls-5" d="M 797.6 335.919 L 797.6 361.519 L 746.4 361.519 L 746.4 335.919 L 797.6 335.919 M 823.2 310.319 L 720.8 310.319 L 720.8 387.119 L 823.2 387.119 L 823.2 310.319 Z" style="fill: rgb(108, 117, 125);"/>
  </g>
  <path d="M 109.627 343.874 L 390.633 343.874 C 395.806 343.874 400 339.68 400 334.508 L 400 165.904 C 400 160.731 395.806 156.537 390.633 156.537 L 109.627 156.537 C 104.454 156.537 100.26 160.731 100.26 165.904 L 100.26 334.508 C 100.26 339.68 104.454 343.874 109.627 343.874 Z M 118.994 287.673 L 193.929 287.673 L 193.929 325.141 L 118.994 325.141 Z M 287.597 231.472 L 287.597 268.939 L 212.662 268.939 L 212.662 231.472 Z M 212.662 212.738 L 212.662 175.271 L 287.597 175.271 L 287.597 212.738 Z M 306.331 231.472 L 381.266 231.472 L 381.266 268.939 L 306.331 268.939 Z M 287.597 287.673 L 287.597 325.141 L 212.662 325.141 L 212.662 287.673 Z M 193.929 268.939 L 118.994 268.939 L 118.994 231.472 L 193.929 231.472 Z M 306.331 325.141 L 306.331 287.673 L 381.266 287.673 L 381.266 325.141 Z M 381.266 212.738 L 306.331 212.738 L 306.331 175.271 L 381.266 175.271 Z M 193.929 175.271 L 193.929 212.738 L 118.994 212.738 L 118.994 175.271 Z" style="fill: rgb(108, 117, 125);"/>
</svg>