<?xml version="1.0" encoding="utf-8"?>
<svg viewBox="0 0 500 500" xmlns="http://www.w3.org/2000/svg" xmlns:bx="https://boxy-svg.com">
  <defs>
    <bx:guide x="211.95" y="250.05" angle="90"/>
  </defs>
  <g transform="matrix(1.171764, 0, 0, 1.171764, -30.05336, 191.266724)" style="">
    <path d="M 119.001 41.18 L 359.001 41.18 C 365.16 41.18 369.009 34.513 365.929 29.18 C 364.5 26.704 361.859 25.18 359.001 25.18 L 119.001 25.18 C 112.843 25.18 108.994 31.846 112.073 37.18 C 113.502 39.655 116.143 41.18 119.001 41.18 Z" style="fill: rgb(108, 117, 125);"/>
    <path d="M 119.001 73.18 L 359.001 73.18 C 365.16 73.18 369.009 66.513 365.929 61.18 C 364.5 58.704 361.859 57.18 359.001 57.18 L 119.001 57.18 C 112.843 57.18 108.994 63.846 112.073 69.18 C 113.502 71.655 116.143 73.18 119.001 73.18 Z" style="fill: rgb(108, 117, 125);"/>
    <path d="M 119.001 105.18 L 359.001 105.18 C 365.16 105.18 369.009 98.513 365.929 93.18 C 364.5 90.704 361.859 89.18 359.001 89.18 L 119.001 89.18 C 112.843 89.18 108.994 95.846 112.073 101.18 C 113.502 103.655 116.143 105.18 119.001 105.18 Z" style="fill: rgb(108, 117, 125);"/>
    <path d="M 119.001 9.18 L 359.001 9.18 C 365.16 9.18 369.009 2.513 365.929 -2.82 C 364.5 -5.296 361.859 -6.82 359.001 -6.82 L 119.001 -6.82 C 112.843 -6.82 108.994 -0.154 112.073 5.18 C 113.502 7.655 116.143 9.18 119.001 9.18 Z" style="fill: rgb(108, 117, 125);"/>
    <path d="M 119.001 137.18 L 311.001 137.18 C 317.16 137.18 321.009 130.513 317.929 125.18 C 316.5 122.704 313.859 121.18 311.001 121.18 L 119.001 121.18 C 112.843 121.18 108.994 127.846 112.073 133.18 C 113.502 135.655 116.143 137.18 119.001 137.18 Z" style="fill: rgb(108, 117, 125);"/>
    <path d="M 119.001 -22.82 L 191.001 -22.82 C 197.16 -22.82 201.009 -29.487 197.929 -34.82 C 196.5 -37.296 193.859 -38.82 191.001 -38.82 L 119.001 -38.82 C 112.843 -38.82 108.994 -32.154 112.073 -26.82 C 113.502 -24.345 116.143 -22.82 119.001 -22.82 Z" style="fill: rgb(108, 117, 125);"/>
  </g>
</svg>