<?xml version="1.0" encoding="utf-8"?>
<svg viewBox="0 0 500 500" xmlns="http://www.w3.org/2000/svg" xmlns:bx="https://boxy-svg.com">
  <defs>
    <bx:guide x="239.893" y="250.149" angle="90"/>
  </defs>
  <g transform="matrix(1.338139, 0, 0, 1.338139, -96.140495, -55.369164)" style="">
    <path d="M 183.031 308 L 334.507 308 C 354.526 307.979 370.748 291.756 370.769 271.738 L 370.769 184.262 C 370.748 164.244 354.526 148.021 334.507 148 L 183.031 148 C 163.013 148.021 146.79 164.244 146.769 184.262 L 146.769 271.738 C 146.79 291.756 163.013 307.979 183.031 308 Z M 162.769 184.262 C 162.783 173.077 171.846 164.013 183.031 164 L 334.507 164 C 345.692 164.013 354.756 173.077 354.769 184.262 L 354.769 271.738 C 354.756 282.923 345.692 291.987 334.507 292 L 183.031 292 C 171.846 291.987 162.783 282.923 162.769 271.738 Z" style="fill: rgb(108, 117, 125);"/>
    <path d="M 238.563 258.806 C 240.922 260.263 243.868 260.395 246.347 259.155 L 294.347 235.155 C 299.855 232.4 300.316 224.716 295.176 221.323 C 294.91 221.148 294.633 220.988 294.347 220.845 L 246.347 196.845 C 241.028 194.185 234.77 198.053 234.769 204 L 234.769 252 C 234.769 254.773 236.205 257.348 238.563 258.806 Z M 250.769 216.944 L 272.88 228 L 250.769 239.056 Z" style="fill: rgb(108, 117, 125);"/>
  </g>
</svg>