<?xml version="1.0" encoding="utf-8"?>
<svg viewBox="0 0 500 500" xmlns="http://www.w3.org/2000/svg" xmlns:bx="https://boxy-svg.com">
  <defs>
    <bx:guide x="249.703" y="250.05" angle="90"/>
  </defs>
  <title>code-flat</title>
  <g transform="matrix(1.337806, 0, 0, 1.337806, -58.834003, 50.021259)" style="">
    <path d="M 169.318 203.091 C 173.673 207.445 181.109 205.453 182.703 199.504 C 183.442 196.743 182.653 193.798 180.632 191.777 L 138.288 149.434 L 180.632 107.091 C 184.987 102.736 182.994 95.3 177.046 93.706 C 174.285 92.966 171.339 93.756 169.318 95.777 L 121.318 143.777 C 118.194 146.901 118.194 151.966 121.318 155.091 Z" style="fill: rgb(108, 117, 125);"/>
    <path d="M 281.318 203.091 C 284.442 206.215 289.508 206.215 292.632 203.091 L 340.632 155.091 C 343.756 151.966 343.756 146.901 340.632 143.777 L 292.632 95.777 C 288.277 91.422 280.841 93.414 279.247 99.363 C 278.508 102.124 279.297 105.07 281.318 107.091 L 323.662 149.434 L 281.318 191.777 C 278.194 194.901 278.194 199.966 281.318 203.091 Z" style="fill: rgb(108, 117, 125);"/>
    <path d="M 204.445 229.023 C 208.637 230.425 213.171 228.158 214.564 223.964 L 262.564 79.964 C 264.569 74.141 259.519 68.331 253.473 69.506 C 250.613 70.062 248.281 72.13 247.386 74.904 L 199.386 218.904 C 197.989 223.095 200.254 227.625 204.445 229.023 Z" style="fill: rgb(108, 117, 125);"/>
  </g>
</svg>