<?xml version="1.0" standalone="no"?>
<!DOCTYPE svg PUBLIC "-//W3C//DTD SVG 20010904//EN"
 "http://www.w3.org/TR/2001/REC-SVG-20010904/DTD/svg10.dtd">
<svg version="1.0" xmlns="http://www.w3.org/2000/svg"
 width="260.000000pt" height="260.000000pt" viewBox="0 0 260.000000 260.000000"
 preserveAspectRatio="xMidYMid meet">
<g transform="translate(0.000000,260.000000) scale(0.100000,-0.100000)"
fill="#000000" stroke="none">
<path d="M1024 2248 c-15 -18 -34 -49 -42 -68 -7 -19 -20 -42 -27 -50 -8 -8
-14 -19 -16 -25 -3 -19 -11 -40 -27 -75 -9 -19 -17 -37 -17 -40 -10 -40 -101
-219 -118 -231 -5 -3 -9 -12 -11 -20 -1 -8 -10 -28 -19 -46 -9 -18 -17 -39
-17 -48 0 -8 -6 -15 -14 -15 -8 0 -13 -6 -13 -12 1 -21 -43 -108 -55 -108 -5
0 -8 -6 -5 -12 6 -17 -28 -80 -38 -70 -5 4 -6 0 -2 -9 3 -9 0 -25 -7 -35 -28
-41 -63 -111 -75 -149 -7 -22 -16 -49 -21 -60 -5 -11 -16 -42 -24 -70 -21 -71
-52 -159 -69 -197 -8 -18 -20 -49 -27 -68 -7 -19 -18 -48 -25 -65 -6 -16 -17
-46 -24 -65 -35 -96 -43 -114 -67 -150 -24 -36 -25 -43 -14 -70 15 -36 103
-120 126 -120 10 0 34 -18 54 -40 l37 -41 24 35 c25 36 91 81 174 117 28 12
70 31 95 42 25 11 97 37 160 58 94 30 116 34 123 23 4 -8 5 -19 2 -24 -3 -6
-3 -10 2 -11 46 -4 123 -9 141 -9 25 0 70 39 91 79 12 22 17 23 77 18 58 -6
64 -4 64 12 0 20 -39 51 -65 51 -8 0 -15 4 -15 9 0 5 14 7 32 4 29 -4 30 -4
14 12 -19 19 -23 11 54 106 97 121 115 142 156 187 l43 47 1 -85 c1 -198 39
-328 138 -480 2 -3 12 6 22 19 17 24 18 24 36 6 18 -18 20 -15 65 81 26 54 46
101 44 102 -2 2 4 18 14 35 10 18 26 57 36 87 10 30 25 65 32 77 8 12 12 27 8
33 -3 5 -1 10 4 10 6 0 11 7 11 15 0 8 5 15 10 15 6 0 10 7 10 15 0 30 121
268 188 369 81 121 182 248 264 330 32 32 58 60 58 62 0 2 -8 0 -17 -3 -16 -6
-16 -5 -5 10 8 8 20 13 28 10 8 -3 14 -1 14 5 0 6 -6 9 -13 8 -18 -2 -64 -36
-49 -36 7 0 10 -5 7 -10 -4 -6 -11 -8 -16 -5 -5 4 -9 1 -9 -4 0 -6 -5 -10 -12
-8 -7 1 -13 -2 -13 -8 -3 -20 -17 -45 -27 -45 -5 0 -6 6 -2 13 4 6 -2 3 -15
-7 -12 -11 -19 -26 -17 -33 3 -7 0 -15 -6 -19 -7 -5 -8 -2 -3 6 5 8 3 11 -6 8
-8 -3 -13 -13 -11 -23 2 -10 -1 -14 -7 -10 -6 3 -11 0 -11 -8 0 -8 -8 -21 -17
-28 -16 -12 -17 -12 -8 1 6 9 2 7 -7 -3 -10 -11 -15 -24 -11 -30 3 -5 1 -7 -4
-4 -14 9 -37 -19 -27 -34 4 -7 3 -9 -3 -6 -12 8 -72 -55 -112 -118 -17 -27
-31 -45 -31 -40 0 4 -12 -14 -27 -41 -14 -27 -36 -67 -47 -88 -26 -47 -51 -65
-67 -49 -8 8 -6 19 5 42 9 17 19 31 22 31 3 0 2 -5 -1 -10 -3 -5 -1 -10 4 -10
14 0 14 3 -1 35 -8 18 -14 22 -19 13 -4 -7 -11 -10 -14 -6 -3 3 1 12 9 21 8 8
12 18 8 21 -7 8 17 26 36 26 6 0 12 -4 12 -10 0 -5 -5 -9 -12 -7 -6 1 -13 -11
-14 -27 -4 -35 5 -27 40 38 25 44 25 48 8 44 -16 -4 -19 -1 -18 18 0 13 6 24
12 24 6 0 28 25 48 55 42 61 75 93 63 62 -4 -11 -3 -16 4 -12 6 4 8 13 5 21
-3 7 4 23 15 36 16 18 19 19 15 5 -4 -11 -2 -16 5 -12 6 4 8 13 5 21 -5 14 9
29 17 17 2 -5 2 -2 1 5 -4 15 153 182 210 223 21 16 36 29 32 29 -12 0 -61
-34 -74 -52 -7 -10 -18 -15 -24 -12 -6 4 -8 2 -5 -3 4 -6 0 -16 -8 -23 -8 -7
-15 -9 -15 -4 0 4 -16 -7 -35 -26 -19 -18 -31 -38 -28 -43 3 -6 2 -7 -4 -4
-12 8 -66 -46 -56 -56 3 -4 2 -7 -4 -7 -11 0 -63 -45 -63 -55 0 -3 -8 -13 -17
-23 -10 -11 -27 -32 -38 -47 -11 -16 -24 -33 -30 -39 -29 -32 -65 -87 -65 -99
0 -9 -4 -17 -8 -19 -19 -8 -90 -125 -172 -286 -23 -46 -45 -80 -48 -77 -11 10
-3 264 9 286 10 19 8 25 -12 41 -13 10 -36 21 -51 24 -15 4 -35 15 -44 25 -9
11 -20 19 -25 19 -16 0 -243 -218 -278 -267 -12 -18 -27 -33 -33 -33 -6 0 -4
8 5 18 10 10 17 25 17 33 0 8 10 34 22 59 12 25 22 47 23 50 0 3 6 15 13 28 7
12 10 22 7 22 -3 0 6 16 21 35 14 19 23 35 20 35 -4 0 0 13 9 30 8 16 14 32
13 34 -2 3 6 12 17 21 11 9 13 13 5 9 -12 -6 -13 -5 -3 7 20 24 73 165 73 193
0 28 -3 29 -85 25 -27 -1 -59 -2 -70 -2 -31 -1 -66 -38 -55 -57 8 -13 10 -13
10 1 0 9 7 19 15 23 16 6 21 -9 6 -18 -4 -3 -7 -17 -6 -31 2 -14 0 -23 -4 -20
-4 2 -18 -14 -30 -35 -12 -22 -18 -40 -12 -40 5 0 12 6 14 13 4 9 6 9 6 -1 1
-8 -8 -16 -20 -19 -16 -5 -20 -12 -17 -33 3 -19 0 -26 -8 -23 -6 2 -14 -5 -17
-16 -3 -13 -1 -19 5 -15 6 4 8 -2 6 -12 -2 -11 -9 -18 -16 -17 -6 2 -9 -4 -6
-12 4 -8 1 -15 -4 -15 -6 0 -9 -9 -7 -20 3 -13 0 -18 -7 -14 -8 5 -9 1 -5 -10
5 -11 3 -15 -5 -10 -8 5 -9 2 -5 -9 8 -22 -2 -49 -16 -40 -6 4 -8 -3 -3 -21 7
-28 -11 -86 -27 -86 -5 0 -5 5 -2 10 3 6 2 10 -4 10 -6 0 -8 6 -6 13 2 6 7 23
9 37 9 48 47 178 67 230 7 19 12 38 11 43 -1 4 3 7 8 7 6 0 10 9 10 21 0 11 5
30 11 41 15 27 4 35 -58 41 l-51 5 -4 -33 c-3 -27 -1 -32 9 -23 15 12 17 4 3
-21 -5 -10 -11 -29 -14 -42 -12 -60 -16 -76 -25 -99 -9 -23 -23 -72 -27 -95
-1 -5 -3 -12 -4 -15 -3 -10 -11 -45 -12 -57 -1 -7 -4 -13 -8 -13 -3 0 -6 -9
-7 -20 -1 -11 2 -18 8 -15 5 4 9 -1 9 -9 0 -8 -5 -18 -12 -22 -7 -5 -8 -2 -3
7 5 8 4 10 0 6 -13 -12 -15 -37 -2 -37 6 0 2 -7 -9 -16 -10 -8 -13 -13 -6 -9
6 3 12 0 12 -7 0 -8 -6 -20 -12 -27 -11 -10 -10 -11 5 -6 10 4 17 2 17 -4 0
-6 -6 -11 -14 -11 -8 0 -18 -4 -21 -10 -3 -6 1 -7 9 -4 9 3 16 1 16 -5 0 -6
-6 -11 -13 -11 -12 0 -36 -46 -43 -85 -4 -20 -4 -20 11 -1 8 11 15 15 15 9 0
-6 -7 -16 -15 -23 -8 -7 -15 -10 -15 -8 0 3 -26 -1 -57 -9 -32 -8 -65 -15 -73
-15 -8 0 -40 -7 -70 -15 -30 -8 -73 -19 -95 -24 -22 -5 -48 -12 -58 -15 -16
-5 -18 -2 -12 15 4 13 1 28 -5 36 -10 12 -10 15 -1 15 7 0 9 5 6 10 -4 6 -1 9
7 8 9 -2 13 8 13 29 0 17 4 29 9 26 5 -3 7 0 4 8 -3 8 1 20 9 27 15 16 17 32
3 32 -5 0 -10 5 -10 10 0 6 6 10 14 10 7 0 16 9 19 20 3 11 1 18 -3 15 -4 -3
-6 4 -3 14 3 12 11 17 20 14 11 -4 14 0 11 18 -2 14 2 23 9 22 6 -1 17 11 25
27 7 17 16 30 19 30 11 0 42 79 36 94 -3 9 -1 18 5 22 7 4 8 3 4 -4 -4 -7 -3
-12 2 -12 14 0 22 38 8 44 -6 2 0 8 13 12 23 7 24 8 5 15 -17 7 -16 8 6 8 20
1 22 3 10 11 -13 8 -13 10 2 10 18 0 58 66 58 94 0 8 5 18 12 22 7 4 8 3 4 -4
-4 -7 -3 -12 3 -12 6 0 13 11 17 24 3 14 14 32 25 42 10 9 19 22 19 29 0 7 11
32 23 56 13 24 32 69 43 99 18 53 21 67 28 135 1 17 8 43 14 58 7 15 15 39 18
53 3 13 10 27 15 30 11 7 -52 103 -68 103 -7 1 -13 6 -13 12 0 5 -5 7 -12 3
-7 -5 -9 -2 -5 9 8 22 -17 40 -45 32 -19 -6 -21 -5 -10 6 20 21 14 46 -18 69
-16 12 -30 28 -30 36 0 23 -16 16 -46 -18z m-127 -540 c-3 -8 -6 -5 -6 6 -1
11 2 17 5 13 3 -3 4 -12 1 -19z m-42 -78 c-9 -16 -21 -30 -28 -29 -9 0 -9 2 1
6 6 2 12 10 12 17 0 11 19 36 27 36 2 0 -3 -13 -12 -30z m1465 17 c0 -2 -10
-12 -22 -23 l-23 -19 19 23 c18 21 26 27 26 19z m-1530 -36 c0 -5 -9 -19 -20
-32 l-21 -24 16 33 c15 31 25 41 25 23z m34 -29 c-6 -4 -23 -28 -38 -54 -27
-47 -36 -56 -36 -40 0 17 60 102 72 102 9 0 9 -3 2 -8z m-87 -67 c-4 -8 -11
-15 -17 -15 -7 0 -7 6 0 21 13 23 26 19 17 -6z m5 -67 c-7 -7 -12 -8 -12 -2 0
14 12 26 19 19 2 -3 -1 -11 -7 -17z m1529 -41 c-10 -9 -11 -8 -5 6 3 10 9 15
12 12 3 -3 0 -11 -7 -18z m-1600 -15 c-6 -11 -7 -22 -4 -26 3 -3 1 -6 -5 -6
-7 0 -12 -4 -12 -8 0 -17 -74 -145 -77 -135 -4 12 99 204 105 198 2 -2 -1 -12
-7 -23z m25 -35 c-1 -7 -12 -30 -24 -50 -12 -21 -22 -42 -22 -46 0 -5 -9 -19
-19 -33 -11 -13 -23 -37 -26 -51 -4 -15 -11 -29 -15 -32 -16 -10 9 57 47 123
21 37 41 75 45 85 9 20 17 23 14 4z m1512 -37 c-12 -16 -23 -30 -25 -30 -7 0
20 45 31 52 18 13 18 9 -6 -22z m-1492 -87 c-2 -16 -5 -34 -5 -40 -1 -7 -6
-13 -11 -13 -10 0 -5 53 6 72 10 16 15 8 10 -19z m-154 -58 c-2 -14 -8 -28
-13 -31 -10 -6 -12 39 -2 49 13 14 20 6 15 -18z m1444 -4 c0 -11 -4 -17 -8
-15 -4 3 -8 0 -8 -7 0 -7 -3 -10 -6 -7 -5 5 12 48 19 48 2 0 3 -9 3 -19z
m-1356 5 c0 -3 -4 -8 -10 -11 -5 -3 -10 -1 -10 4 0 6 5 11 10 11 6 0 10 -2 10
-4z m27 -38 c-1 -13 -8 -29 -15 -37 -10 -10 -10 -16 -1 -27 9 -11 8 -18 -1
-29 -7 -8 -16 -12 -21 -9 -5 3 -6 -2 -3 -10 4 -9 1 -16 -6 -16 -16 0 -5 61 21
112 22 43 30 48 26 16z m-137 -20 c-1 -7 -8 -26 -16 -43 -8 -16 -12 -22 -9
-12 3 10 5 30 5 43 0 13 5 24 10 24 6 0 10 -6 10 -12z m1506 -10 c4 -5 2 -8
-4 -8 -7 0 -12 -7 -12 -15 0 -8 -4 -15 -10 -15 -5 0 -7 -6 -4 -14 3 -7 -2 -20
-10 -29 -9 -9 -16 -22 -16 -29 0 -7 -7 -22 -15 -32 -8 -10 -12 -23 -9 -27 3
-5 0 -17 -6 -26 -9 -15 -10 -12 -8 17 1 19 -4 45 -10 58 -11 18 -10 22 2 22
15 0 52 82 43 97 -6 10 49 11 59 1z m-771 -35 c-5 -10 -10 -27 -12 -37 -5 -28
-13 -33 -13 -10 0 22 22 75 29 69 2 -2 0 -12 -4 -22z m-717 -33 c-6 -22 -15
-40 -20 -40 -5 0 -4 9 2 19 5 11 10 29 10 40 0 12 4 21 9 21 5 0 4 -17 -1 -40z
m1218 -8 c0 -10 -6 -19 -13 -19 -17 0 -8 28 12 37 1 0 1 -8 1 -18z m-1273 -37
c-3 -9 -8 -14 -10 -11 -3 3 -2 9 2 15 9 16 15 13 8 -4z m827 0 c0 -8 -4 -15
-10 -15 -5 0 -7 7 -4 15 4 8 8 15 10 15 2 0 4 -7 4 -15z m463 -122 c4 -7 1
-27 -7 -45 l-14 -33 2 32 c2 18 -1 30 -6 27 -4 -3 -6 15 -4 40 3 25 0 46 -5
46 -5 0 -9 7 -9 16 0 8 5 12 10 9 6 -3 11 4 12 17 0 13 4 -4 7 -37 3 -33 10
-65 14 -72z m-1260 97 c-3 -12 -8 -19 -11 -16 -5 6 5 36 12 36 2 0 2 -9 -1
-20z m-33 -10 c0 -5 -4 -10 -9 -10 -6 0 -13 5 -16 10 -3 6 1 10 9 10 9 0 16
-4 16 -10z m811 -13 c-10 -9 -11 -8 -5 6 3 10 9 15 12 12 3 -3 0 -11 -7 -18z
m-833 -38 c-6 -16 -12 -28 -14 -26 -5 5 13 57 20 57 3 0 0 -14 -6 -31z m692
21 c0 -5 -2 -10 -4 -10 -3 0 -8 5 -11 10 -3 6 -1 10 4 10 6 0 11 -4 11 -10z
m60 6 c0 -2 -7 -7 -16 -10 -8 -3 -12 -2 -9 4 6 10 25 14 25 6z m488 -27 c-3
-8 -7 -3 -11 10 -4 17 -3 21 5 13 5 -5 8 -16 6 -23z m202 19 c0 -4 -4 -8 -9
-8 -6 0 -12 4 -15 8 -3 5 1 9 9 9 8 0 15 -4 15 -9z m-1407 -28 c-3 -12 -8 -19
-11 -16 -5 6 5 36 12 36 2 0 2 -9 -1 -20z m1422 1 c-3 -6 -10 -9 -15 -6 -4 3
-6 -4 -3 -16 5 -16 8 -18 15 -7 7 9 8 8 4 -5 -3 -10 -6 -22 -6 -27 0 -4 -8 -7
-17 -6 -9 0 -22 -9 -28 -22 -18 -34 -28 -40 -16 -9 14 36 14 40 -1 32 -7 -4
-5 0 5 8 9 8 17 21 17 30 0 9 10 23 22 31 23 16 35 15 23 -3z m-715 -3 c0 -7
-4 -19 -9 -27 -11 -17 -23 1 -15 23 7 19 24 21 24 4z m651 -25 c-12 -20 -14
-14 -5 12 4 9 9 14 11 11 3 -2 0 -13 -6 -23z m-147 2 c3 -8 1 -15 -4 -15 -6 0
-10 7 -10 15 0 8 2 15 4 15 2 0 6 -7 10 -15z m-1274 -42 c-11 -17 -11 -17 -6
0 3 10 6 24 7 30 0 9 2 9 5 0 3 -7 0 -20 -6 -30z m41 10 c-12 -20 -14 -14 -5
12 4 9 9 14 11 11 3 -2 0 -13 -6 -23z m-20 -50 c-12 -20 -14 -14 -5 12 4 9 9
14 11 11 3 -2 0 -13 -6 -23z m1259 12 c0 -8 -2 -15 -4 -15 -2 0 -6 7 -10 15
-3 8 -1 15 4 15 6 0 10 -7 10 -15z m-1297 -10 c-3 -9 -8 -14 -10 -11 -3 3 -2
9 2 15 9 16 15 13 8 -4z m37 -29 c0 -2 -7 -9 -15 -16 -13 -11 -14 -10 -9 4 5
14 24 23 24 12z m1273 -26 c-7 -27 -13 -25 -11 4 1 14 5 23 9 20 4 -2 5 -13 2
-24z m-1317 -57 c-8 -15 -15 -25 -16 -21 0 12 23 58 27 54 3 -2 -2 -17 -11
-33z m1408 22 c3 -8 1 -15 -4 -15 -6 0 -10 7 -10 15 0 8 2 15 4 15 2 0 6 -7
10 -15z m-784 -45 c0 -6 -11 -8 -26 -4 -19 5 -25 4 -20 -5 7 -10 1 -12 -45
-16 -9 0 -24 -6 -32 -14 -9 -7 -35 -15 -57 -17 -23 -3 -54 -10 -68 -16 -29
-12 -90 -23 -82 -14 3 2 17 6 30 8 14 2 30 6 35 10 6 4 47 18 90 33 44 14 91
30 105 34 36 12 70 13 70 1z m-340 -100 c0 -5 -8 -10 -17 -10 -15 0 -16 2 -3
10 19 12 20 12 20 0z"/>
<path d="M1975 1029 c-4 -6 -5 -12 -2 -15 2 -3 7 2 10 11 7 17 1 20 -8 4z"/>
<path d="M2169 1439 c-8 -16 -8 -24 1 -33 8 -8 10 -7 5 7 -4 9 -3 17 3 17 5 0
12 7 16 15 8 23 -12 18 -25 -6z"/>
<path d="M2130 1380 c-8 -15 -8 -20 3 -20 7 0 13 9 14 20 1 11 0 20 -2 20 -2
0 -9 -9 -15 -20z"/>
</g>
</svg>
