<?xml version="1.0" encoding="utf-8"?>
<svg viewBox="0 0 500 500" xmlns="http://www.w3.org/2000/svg" xmlns:bx="https://boxy-svg.com">
  <defs>
    <bx:guide x="239.001" y="250.149" angle="90"/>
    <bx:guide x="250.595" y="382.729" angle="0"/>
  </defs>
  <title>audio-flat</title>
  <path d="M 182.026 366.222 C 208.791 366.194 230.481 344.504 230.511 317.738 L 230.511 209.785 L 346.874 193.162 L 346.874 259.586 C 317.022 237.207 274.137 255.534 269.682 292.577 C 265.226 329.619 302.54 357.593 336.848 342.931 C 354.699 335.302 366.276 317.758 366.267 298.345 L 366.267 143.194 C 366.267 137.293 361.04 132.761 355.198 133.595 L 219.442 152.99 C 214.665 153.672 211.117 157.764 211.117 162.588 L 211.117 278.977 C 181.272 256.576 138.368 274.882 133.891 311.929 C 130.4 340.803 152.943 366.228 182.026 366.222 Z M 317.783 327.435 C 295.389 327.435 281.392 303.193 292.59 283.799 C 303.786 264.405 331.779 264.405 342.976 283.799 C 345.529 288.222 346.874 293.238 346.874 298.345 C 346.855 314.404 333.842 327.417 317.783 327.435 Z M 346.874 154.375 L 346.874 173.572 L 230.511 190.195 L 230.511 170.997 Z M 182.026 288.647 C 204.42 288.647 218.416 312.89 207.22 332.283 C 196.023 351.677 168.03 351.677 156.834 332.283 C 154.28 327.861 152.935 322.844 152.935 317.738 C 152.955 301.68 165.969 288.667 182.026 288.647 Z" style="fill: rgb(108, 117, 125);"/>
</svg>