<?xml version="1.0" encoding="utf-8"?>
<svg viewBox="0 0 500 500" xmlns="http://www.w3.org/2000/svg" xmlns:bx="https://boxy-svg.com">
  <defs>
    <bx:guide x="239.893" y="250.149" angle="90"/>
  </defs>
  <g transform="matrix(1.339286, 0, 0, 1.339286, -114.880455, 25.943516)" style="">
    <path d="M 168.444 255.045 L 376.444 255.045 C 380.862 255.045 384.444 251.463 384.444 247.045 L 384.444 87.045 C 384.444 82.627 380.862 79.045 376.444 79.045 L 168.444 79.045 C 164.025 79.045 160.444 82.627 160.444 87.045 L 160.444 247.045 C 160.444 251.463 164.025 255.045 168.444 255.045 Z M 185.089 239.045 L 232.571 179.693 L 266.298 220.167 C 268.406 222.697 271.849 223.676 274.974 222.634 L 318.674 208.067 L 354.818 239.045 Z M 368.444 95.045 L 368.444 229.651 L 325.65 192.971 C 323.516 191.143 320.579 190.567 317.914 191.456 L 275.094 205.729 L 238.594 161.923 C 237.073 160.098 234.819 159.044 232.444 159.045 L 232.364 159.045 C 229.962 159.069 227.698 160.17 226.197 162.045 L 176.444 224.239 L 176.444 95.045 Z" style="fill: rgb(108, 117, 125);"/>
    <path d="M 304.444 175.045 C 322.919 175.045 334.466 155.045 325.228 139.045 C 315.991 123.045 292.897 123.045 283.659 139.045 C 281.552 142.694 280.444 146.832 280.444 151.045 C 280.458 164.294 291.195 175.03 304.444 175.045 Z M 304.444 143.045 C 310.602 143.045 314.451 149.712 311.372 155.045 C 308.293 160.378 300.595 160.378 297.515 155.045 C 296.813 153.829 296.444 152.449 296.444 151.045 C 296.448 146.629 300.027 143.05 304.444 143.045 Z" style="fill: rgb(108, 117, 125);"/>
  </g>
</svg>