<?xml version="1.0" encoding="utf-8"?>
<svg viewBox="0 0 500 500" xmlns="http://www.w3.org/2000/svg" xmlns:bx="https://boxy-svg.com">
  <defs>
    <bx:guide x="238.407" y="250.149" angle="90"/>
    <bx:guide x="250.297" y="217.747" angle="0"/>
  </defs>
  <title>notepad-1-flat</title>
  <g id="040---Browser-Survey" fill="rgb(0,0,0)" fill-rule="nonzero" transform="matrix(6.818172, 0, 0, 6.818172, 45.45462, 3.892695)" style="">
    <g transform="matrix(1, 0, 0, 1, 11.419, 9.635369)">
      <path id="Shape" d="M -1.419 23.365 L 6.581 23.365 C 7.685 23.363 8.58 22.469 8.581 21.365 L 8.581 13.365 C 8.58 12.261 7.685 11.366 6.581 11.365 L -1.419 11.365 C -2.523 11.366 -3.418 12.261 -3.419 13.365 L -3.419 21.365 C -3.418 22.469 -2.523 23.363 -1.419 23.365 Z M -1.419 13.365 L 6.581 13.365 L 6.581 21.365 L -1.419 21.365 Z" style="fill: rgb(108, 117, 125);"/>
      <path id="Shape" d="M 7.581 36.321 C 7.029 36.321 6.581 36.769 6.581 37.321 L 6.581 39.321 L -1.419 39.321 L -1.419 31.321 L 3.581 31.321 C 4.133 31.321 4.581 30.873 4.581 30.321 C 4.581 29.769 4.133 29.321 3.581 29.321 L -1.419 29.321 C -2.523 29.322 -3.418 30.217 -3.419 31.321 L -3.419 39.321 C -3.418 40.425 -2.523 41.32 -1.419 41.321 L 6.581 41.321 C 7.685 41.32 8.58 40.425 8.581 39.321 L 8.581 37.321 C 8.581 36.769 8.133 36.321 7.581 36.321 Z" style="fill: rgb(108, 117, 125);"/>
      <path id="Shape" d="M 8.781 27.721 L 3.472 34.799 L 2.288 33.614 C 1.896 33.235 1.272 33.24 0.886 33.626 C 0.5 34.012 0.495 34.636 0.874 35.028 L 2.874 37.028 C 3.061 37.216 3.316 37.321 3.581 37.321 C 3.604 37.321 3.628 37.32 3.652 37.319 C 3.941 37.298 4.207 37.153 4.381 36.921 L 10.381 28.921 C 10.712 28.479 10.623 27.852 10.181 27.521 C 9.739 27.19 9.112 27.279 8.781 27.721 Z" style="fill: rgb(108, 117, 125);"/>
    </g>
    <g style="" transform="matrix(1, 0, 0, 1, 18.000065, 0.103067)">
      <path id="Shape" d="M 9 23.706 L 17 23.706 C 17.552 23.706 18 23.258 18 22.706 C 18 22.154 17.552 21.706 17 21.706 L 9 21.706 C 8.448 21.706 8 22.154 8 22.706 C 8 23.258 8.448 23.706 9 23.706 Z" style="fill: rgb(108, 117, 125);"/>
      <path id="Shape" d="M 33 21.706 L 21 21.706 C 20.448 21.706 20 22.154 20 22.706 C 20 23.258 20.448 23.706 21 23.706 L 33 23.706 C 33.552 23.706 34 23.258 34 22.706 C 34 22.154 33.552 21.706 33 21.706 Z" style="fill: rgb(108, 117, 125);"/>
      <path id="Shape" d="M 33 25.706 L 9 25.706 C 8.448 25.706 8 26.154 8 26.706 C 8 27.258 8.448 27.706 9 27.706 L 33 27.706 C 33.552 27.706 34 27.258 34 26.706 C 34 26.154 33.552 25.706 33 25.706 Z" style="fill: rgb(108, 117, 125);"/>
      <path id="Shape" d="M 9 31.706 L 21 31.706 C 21.552 31.706 22 31.258 22 30.706 C 22 30.154 21.552 29.706 21 29.706 L 9 29.706 C 8.448 29.706 8 30.154 8 30.706 C 8 31.258 8.448 31.706 9 31.706 Z" style="fill: rgb(108, 117, 125);"/>
      <path id="Shape" d="M 33 29.706 L 25 29.706 C 24.448 29.706 24 30.154 24 30.706 C 24 31.258 24.448 31.706 25 31.706 L 33 31.706 C 33.552 31.706 34 31.258 34 30.706 C 34 30.154 33.552 29.706 33 29.706 Z" style="fill: rgb(108, 117, 125);"/>
      <path id="Shape" d="M 9 42 L 17 42 C 17.552 42 18 41.552 18 41 C 18 40.448 17.552 40 17 40 L 9 40 C 8.448 40 8 40.448 8 41 C 8 41.552 8.448 42 9 42 Z" style="fill: rgb(108, 117, 125);"/>
      <path id="Shape" d="M 33 40 L 21 40 C 20.448 40 20 40.448 20 41 C 20 41.552 20.448 42 21 42 L 33 42 C 33.552 42 34 41.552 34 41 C 34 40.448 33.552 40 33 40 Z" style="fill: rgb(108, 117, 125);"/>
      <path id="Shape" d="M 33 44 L 9 44 C 8.448 44 8 44.448 8 45 C 8 45.552 8.448 46 9 46 L 33 46 C 33.552 46 34 45.552 34 45 C 34 44.448 33.552 44 33 44 Z" style="fill: rgb(108, 117, 125);"/>
      <path id="Shape" d="M 21 48 L 9 48 C 8.448 48 8 48.448 8 49 C 8 49.552 8.448 50 9 50 L 21 50 C 21.552 50 22 49.552 22 49 C 22 48.448 21.552 48 21 48 Z" style="fill: rgb(108, 117, 125);"/>
      <path id="Shape" d="M 33 48 L 25 48 C 24.448 48 24 48.448 24 49 C 24 49.552 24.448 50 25 50 L 33 50 C 33.552 50 34 49.552 34 49 C 34 48.448 33.552 48 33 48 Z" style="fill: rgb(108, 117, 125);"/>
    </g>
  </g>
</svg>