<svg version="1" xmlns="http://www.w3.org/2000/svg" width="346.667" height="346.667" viewBox="0 0 260.000000 260.000000"><path d="M110 3.7c0 .5-1.8 2.8-4 5.2-2.1 2.4-4.2 5.6-4.5 7.3-.4 1.6-1.6 3.8-2.8 4.8-1.1 1.1-1.7 2-1.1 2 .5 0 .3.4-.4.9-.7.4-1.4 1.8-1.5 2.9-.1 1.2-.5 2.2-1 2.2s-.7.6-.4 1.3c.3.8-.3 2-1.3 2.7-1.1.8-1.7 1.7-1.5 2 .3.4-.5 2.7-1.7 5.1-1.2 2.4-2.3 5.1-2.5 5.9-.5 2.8-4 8.9-4.7 8.2-.4-.3-.4.1 0 1.1.3.9.2 1.7-.4 1.7-.5 0-1.7 1.7-2.5 3.8-.8 2.1-2.2 4.4-3.1 5.1-.9.7-1.4 1.7-1.1 2.1.3.4-.2 1-.9 1.3-.8.3-2 1.6-2.6 2.8-.8 1.4-.8 1.9-.1 1.5.7-.5.9-.1.5.8-.3.9-1 1.6-1.6 1.6-.5 0-.7.4-.4.9.3.4-.3 1.6-1.3 2.5-1 1-1.7 2.5-1.4 3.5.2.9-.3 2.3-1.1 3-.9.8-1.6 1-1.6.5s-.4-.2-1 .6c-.5.9-.5 1.9.2 2.7.7.9.7 1.3 0 1.3-1.4 0-6.3 9.6-5.4 10.5.4.4.2.6-.3.5-2.8-.6-3.5.1-2.9 2.7.6 2.1.4 2.5-.8 2-1.1-.4-1.4-.1-1.1 1.2.2 1-.7 2.8-2.2 4.3-1.4 1.5-2.1 2.8-1.5 3 .7.2.3 1.3-.9 2.7-1.2 1.3-2.1 3-2.1 3.8 0 .7-.4 1.3-1 1.3-.5 0-1 .5-1 1.1 0 .6-.9 2.3-2 3.9-1.1 1.5-1.7 3-1.3 3.4.3.3.1.6-.6.6s-.9.4-.6 1c.3.5.1 1-.5 1s-.9.4-.6.8c.3.5-.1 1.9-.8 3.3-.7 1.3-1.1 3-.8 3.7.2.7-.4 2.2-1.4 3.3-.9 1-1.4 1.9-.9 1.9.4 0 0 1.1-.9 2.5s-1.4 3-1.1 3.5c.3.5.1 1.1-.5 1.5-.5.3-1 1.6-1 2.8 0 1.2-.9 3.7-2.1 5.6-1.1 1.8-1.8 3.6-1.5 3.8.3.3 0 1.5-.7 2.7-.6 1.1-1.2 2.8-1.2 3.6-.1.8-.6 1.4-1.2 1.3-.6-.1-1 .6-1 1.5 0 2.4-1.4 6.2-2.2 6.2-.4 0-.8.7-.8 1.5 0 1.3-2.5 7.8-5.2 13.5-.4.8-1.4 3.6-2.2 6.2-.7 2.7-1.7 4.8-2.1 4.8-.4 0-.8.9-.8 2s-.5 2-1.2 2c-.6 0-.9.3-.6.6.9.8-2 7.2-4.2 9.7-1.1 1.1-1.7 2.4-1.4 2.9.3.4 0 .8-.5.8-.6 0-1.1.7-1.1 1.6 0 .9-.5 1.2-1.2.8-.9-.6-.9-.3 0 .9.8.9 1 2.2.6 2.8-.4.8-.3.9.4.5s1.2-.1 1.2.7c0 2.3 12.2 14 15 14.3.6.1 1.2.3 1.5.4.3.1.8.3 1.3.4 1.9.3 7.3 5 8.9 7.6.9 1.7 2 3 2.3 3 .4 0 1.4-1.6 2.3-3.5 1.3-2.8 10.5-10.8 12.7-11.1 1.2-.1 6.6-2.9 7.1-3.7.3-.5 1-.9 1.5-.9 1.4-.1 3.5-.8 7.4-2.6 1.9-.9 3.7-1.7 4-1.7.3-.1 1.6-.6 3-1.2 4.8-2.1 7.5-3.1 8.1-2.9.3 0 1.3-.5 2.2-1.3 1-.7 1.7-1 1.7-.6s.7.2 1.5-.5 1.5-1 1.5-.6c0 .3 1.6-.1 3.6-.9s4.8-1.8 6.3-2.1c1.4-.3 3.1-.6 3.6-.7.6-.2 1.6-.6 2.4-1.1 1.8-1.2 4.9 2.9 4.5 6-.1 1.3.2 2.2.7 1.8.5-.3.9-.1.9.3 0 .5 1.9 1 4.3 1.1 2.3.1 5.7.4 7.6.5 2.5.3 3.9-.2 5-1.6.9-1.1 2.3-2.7 3.1-3.6.9-.9 2.6-3.8 3.8-6.4 1.2-2.6 2.9-5 3.8-5.4 2.4-.9 12.5-1 17.4-.1 6.2 1.2 8.2 1.1 9.1-.3 1.6-2.7-3.9-7.6-7.8-7-.6.1-1.4-.3-1.8-.9-.4-.7-1.2-.7-2.5 0s-2.1.7-2.5 0c-.4-.6-.1-.9.7-.8.7.2 1.2-.3 1-.9-.1-.7.5-1.3 1.3-1.3s1.5.3 1.5.7c0 .5 1.9.9 4.3 1 4.1.2 4.1.1 2-1.4-1.3-.8-2.3-2.2-2.3-2.9 0-.8-.3-1.3-.7-1.2-.5.2-.8-.2-.8-.7 0-.6.3-.9.8-.7.4.1.7-.7.7-1.8s-.5-2-1.1-2c-.5 0-.7-.5-.4-1 .4-.6.1-1.7-.5-2.5-.7-.8-.8-1.5-.3-1.5s1.5-1 2-2.3c1.1-2.4 12.2-16.5 15.9-20.3l2.2-2.1v13.1c-.1 14.9.4 25.6 1.2 25.6.3 0 .6 1 .6 2.2.2 2.9 1 6.2 2.1 8.5.5 1 .9 2.5.8 3.3 0 .8.2 1.7.5 2 .4.3 2 3.2 3.7 6.5 1.7 3.3 3.7 7.3 4.6 8.8l1.5 2.8 1.3-3c1.4-3.2 4.9-4.3 4.9-1.6 0 2.2 3.1 1.8 3.7-.5.3-1.1.9-2 1.3-2 .5 0 1.3-1.2 1.9-2.8.6-1.5 2.4-5.1 4-8 1.6-2.9 2.9-5.4 2.9-5.5 0-.1 1.8-4 4-8.7 2.2-4.7 4.1-8.8 4.2-9.2.3-2 8.4-17.4 9.4-18 .8-.6.7-.8-.2-.8-.8 0-.1-1.7 1.8-4.5 1.7-2.5 2.8-4.5 2.5-4.5-.3 0 .7-2.3 2.1-5 1.4-2.8 2.9-5 3.3-5 .4 0 .7-.9.8-2 .1-1.1.9-2.7 1.7-3.6 1.5-1.4 1.8-2.2 1.5-4.1 0-.3.6-1 1.5-1.5s1.6-1.7 1.6-2.8c0-1 .7-2.6 1.6-3.4.8-.9 1.2-1.6.7-1.6-.4 0 0-.7 1-1.4 1-.8 1.8-1.7 1.9-2 0-1.9 1.2-4.6 1.9-4.6.5 0 .9-.3.8-.8-.2-1.5 1.4-5.2 2.2-5.2.5 0 .9-.6.9-1.3 0-.8.9-2.2 2-3.2s2-2.6 2-3.6.6-2.2 1.3-2.6c1.3-.9 1.9-5.3.7-5.3-.4 0-1 .7-1.4 1.5-.3.8-1 1.5-1.6 1.5-1.6 0-1.2-2.2.8-3.6 1.5-1.1 1.5-1.4.2-2.6-.8-.7-1.2-.9-.8-.4.4.4.2 1.4-.5 2.2-2.9 3.2-3.7 4.4-3.2 4.4.4 0 0 .7-.9 1.5-.8.8-2 1.5-2.6 1.5-.6 0-.8.4-.5 1 .3.5.1 1-.6 1-.8 0-.8.4.1 1.5s.9 1.5.1 1.5c-.7 0-.9.4-.6 1 .3.6-.1.7-.9.4-1.2-.4-1.6 0-1.6 1.6 0 1.1-.4 1.9-.8 1.6-.4-.2-1.8 1.5-3.1 4-1.3 2.4-2.8 4.4-3.2 4.4-.5 0-.9.7-.9 1.5s-.5 1.5-1 1.5c-.6 0-.9.3-.9.7.3 1.9-.3 3-3.2 6.3-1.7 1.9-2.8 2.8-2.3 2 .7-1.3.5-1.3-.9-.1-1.4 1.1-1.8 1.1-2.3-.3-.3-.9-1-1.3-1.5-1-1.2.7-.7-1.6.6-3.2.6-.7 1.3-1 1.8-.7.6.4 1.1-2 .8-4 0-.4.2-.6.6-.6.5.1 1.7.1 2.7 0 2-.1 2-.1 0-1.6-1.9-1.5-1.9-1.5.1-.8 1.8.6 1.8.5.6-1-1.2-1.5-.9-2.1.9-1.9.3 0 .7-.8.7-1.9.2-1.7-.1-1.7-3.2.6-3.8 2.9-5.5 1.5-2.3-2 1.5-1.6 2.1-1.7 2.7-.6.5.7 1.1.9 1.4.4.6-.9-3.3-3.3-5.2-3.3-.5 0-1.6 1.6-2.5 3.5-.9 1.9-2.1 3.5-2.5 3.5-.5 0-1.2 1.1-1.5 2.4-.3 1.4-1.2 3.1-2 3.9-.8.8-2.2 2.9-3.1 4.8-2 4.3-3.7 7.2-5.4 9.3-.7.9-1 1.6-.5 1.6s.4.4-.2.8c-.6.4-2.9 4.3-5 8.7-2.1 4.4-4.2 8.1-4.7 8.3-.4.2-.7 1-.7 1.9 0 .8-.5 1.3-1.1 1.1-1.1-.4-1.9-13.8-.8-13.8.3 0 .5-1.7.3-3.8-.1-2 .1-4.2.4-4.7.4-.6.7-4 .8-7.7.1-4.4.7-7.6 1.8-9.3 1.7-2.6 1.3-7.1-.5-6-.5.4-.9.1-.9-.6s-.3-.9-.7-.6c-.3.4-1.3.1-2.1-.6-.8-.6-2.7-1.3-4.1-1.3-4-.3-4.3-.3-3.7-1.3.6-.8-1.4-2.1-4.1-2.6-.6-.2-2.7 1.2-4.7 3.1-2 1.9-3.4 3.4-3.2 3.4.3 0-1.9 2.4-4.7 5.4-2.9 2.9-6.2 6.7-7.4 8.2-1.2 1.6-3.8 4.6-5.7 6.7-2 2-3.4 3.7-3.1 3.7.2 0-.8 1.3-2.3 2.8-1.5 1.5-4 4.9-5.6 7.5-1.6 2.5-3.3 4.4-3.8 4.1-.5-.3-.5-1.1 0-1.7.5-.7 3.1-6.6 5.7-13.2 6.8-17.1 6.9-17.5 7.7-17.5.5 0 .7-.3.6-.8-.1-.4.6-2.5 1.6-4.7s2.6-6.2 3.7-8.8c1-2.6 2.6-5.9 3.5-7.2.9-1.3 1.3-2.9.9-3.5-.3-.5-.1-1 .4-1 .6 0 1-.3.9-.8-.1-.4.5-2.1 1.2-3.7.7-1.7 1.4-3.2 1.5-3.5.1-.3.5-1.3.8-2.3 2-5.1 2-5.1 3-10.7.2-.9.6-2.1 1.1-2.8.4-.7.2-1.2-.6-1.2-1 0-1-.2.1-.9.7-.5 1-1.4.7-2-.4-.6-1.3-.8-1.9-.4-.7.4-2.1.9-3.2 1.1-3.3.5-6 1-6 1.2 0 .2-3.4.9-6.7 1.4-3.8.6-8.3 3.7-6.7 4.7.7.4 1.7.5 2.3.2.6-.4.6.1.1 1.3-.4 1-1 3-1.2 4.4-1 5.2-2.7 8.1-4.6 7.6-1.5-.4-1.6-.2-.6 1 .6.8.8 1.4.3 1.4s-1 1.4-1.1 3.1c-.1 1.7-1 3.7-2 4.5-1 .7-1.4 1.4-.9 1.4.5 0 .2.8-.5 1.7-.8.9-.9 1.4-.3 1 .7-.4 1.1.3 1.2 1.8 0 1.4-.5 2.8-1.1 3.2-.6.4-.7.1-.3-.8.4-.8 0-.5-.8.5-1.8 2.3-2 4.2-.6 5.1.6.4.8 1.1.4 1.6-.3.5-.9.7-1.4.4-.4-.3-.7.3-.6 1.2.2 1-.3 2.8-1.1 3.9-.8 1.2-1.3 2.6-1.1 3 .1.5-.3 1.9-1 3-.6 1.2-.8 2.4-.4 2.8.3.4-.2.4-1.3 0-1.8-.7-1.8-.6-.6.9 1.1 1.4 1.1 2.1-.3 4.2-1.1 1.7-1.4 3.1-.8 4.3 1.1 2.1.4 4.5-1 3.6-.6-.4-.8-.2-.4.4.3.6.1 2.2-.6 3.7-.9 2-1.4 2.3-2 1.2-.4-.8-.5-2.5-.2-3.8.5-2.6 1.3-7.3 1.6-10.2.1-.9.6-1.7 1-1.7s.5-1 .3-2.1c-.2-1.2 0-2.9.5-3.9.5-.9 1.1-2.8 1.4-4.1 1.1-5.5 1.5-6.7 3-10.2.8-2.1 1.5-4 1.6-4.2.5-3.8 1.4-6.5 2.2-6.5.6 0 .7-1.1.4-2.5-.4-1.4-.3-2.5.2-2.5s.9-.6 1-1.3c.2-2.4.8-4.6 1.4-5.3 1.3-1.2-1.6-3.2-3.3-2.3-.9.5-3.2.9-5 1.1-1.9.1-3.9.6-4.6 1.1-.7.5-1.6.6-2.1.3s-.9.1-.9.9.6 1.5 1.4 1.5c1.5 0 1.3 2.1-.2 3.2-.5.4.1.8 1.4.8 1.7 0 2.1.3 1.3 1.2-.9 1.3-3 8.6-3.7 13.8-.7 4.2-1.4 7-2.2 8.3-.4.6-.9 2.1-1 3.2-.2 1.1-.5 3.1-.8 4.5-.3 1.4-1 5.1-1.6 8.2-.6 3.2-1.5 5.8-1.9 5.8-.9 0-.8 1.3.4 4.8.6 1.7.3 2.7-1.1 3.7-1.4 1.1-1.5 1.4-.3 1.5 1.2 0 1.1.3-.3 1.1-1.4.8-1.6 1.4-.6 2.5.9 1.1.9 1.4-.2 1.4-1 0-1 .3-.2 1.1.6.6.9 1.8.6 2.5-.3.8 0 1.4.7 1.4.6 0 .8.5.5 1-.4.6-1 .8-1.4.6-.4-.3-.8.4-.8 1.5-.1 1.1.2 1.7.8 1.4.5-.4.9-.2.9.4 0 .5-.9 1.3-2 1.6-1.1.4-1.8 1.1-1.5 1.6.4.5.1.9-.5.9s-.9.4-.6.9c.7 1.1-3.1 2.4-6.1 2.1-1.3-.1-2.3.3-2.3.8s-1.2.8-2.7.7c-1.6-.1-3.8.2-5.1.6-1.2.5-3.4 1.1-4.7 1.4-1.4.3-3.7.8-5.2 1.1-1.5.3-3.2.9-3.8 1.3-.5.5-2.5.8-4.3.7-1.7 0-3.2.3-3.2.8 0 .4-.6.6-1.4.3-.7-.3-1.8-.1-2.4.5-.6.6-1.8.8-2.7.4-1.2-.4-1.4-1-.5-2.5 1.3-2.6 1.3-3.1-.4-3.1-.9 0-1.2-.8-.8-2.5.4-2.3.6-2.4 1.7-.9s1.3 1.4 2.3-1.4c.6-1.8.9-3.2.7-3.2-.3 0 0-1.1.5-2.5.8-2 .7-2.3-.8-1.9-1.1.4-.8-.2.8-1.5 1.4-1.1 2.1-2.1 1.7-2.1-.5 0-.1-.7.7-1.6 1.6-1.6 1.2-3.9-.5-2.9-1.5 1-1-1.2.6-2.5.8-.7 1.5-.9 1.5-.4s.7-.2 1.6-1.4c.9-1.3 1.3-2.6 1-2.9-.3-.4-.6-.1-.6.5 0 .7-.4 1.2-.9 1.2s-.8-1.1-.7-2.4c.1-1.8.6-2.3 2.3-2.1 1.2.1 2-.1 1.8-.6-.3-.4-.1-1.1.5-1.4.8-.5.8-1.1.1-1.9-1.3-1.5-.4-2.6 2.1-2.6 1 0 1.7-.3 1.6-.8-.2-1 3.6-7.2 4.5-7.2.5 0 .5-.5.2-1-.3-.6-.1-1 .5-1 .8 0 1-1 .6-2.8-.4-1.7-.3-2.2.2-1.3 1.1 1.5 2.7-.3 1.7-1.9-.3-.6-.1-1 .5-1s1-.8.8-1.8c-.2-.9.2-1.6.8-1.5 1.8.3 2.5-3.7.8-4.4-.8-.3-1.1-.9-.8-1.4.3-.5.9-.7 1.4-.4 1.1.7 5.1-3.1 4.3-3.9-.3-.3.2-.8 1.1-1.2.9-.3 1.6-1 1.6-1.6 0-.5.7-1.6 1.5-2.5.8-.8 1.3-1.8 1-2.3-.3-.4.2-1.1 1.1-1.4.9-.3 1.4-1.2 1.1-1.9-.7-2 1.1-5.7 2.6-5.1.8.3 1.9-.1 2.5-.8 1.1-1.3 1.2-1.8 1.2-4.3 0-.8.6-1.5 1.4-1.5 1.2 0 2.5-1.8 3-4 .1-.3 2.3-4.9 4.9-10.2 2.7-5.3 5-10.7 5.2-11.9.3-1.2.8-2.5 1.3-2.8.4-.3.7-2.3.7-4.4-.1-2.7.3-3.7 1.5-3.7.9 0 1.1-.3.5-.8-1.4-1-1.2-6.9.3-8.4.6-.6 1.2-1.9 1.2-2.7 0-2.5 3.2-10.1 4.3-10.1.5 0 .5-.5-.2-1.3-.6-.8-.8-1.7-.4-2 .3-.4.1-.7-.5-.7-.7 0-1.2-.7-1.2-1.5s-.3-1.5-.8-1.5c-.4 0-1.8-1.8-3.2-3.9-1.3-2.2-2.6-3.9-2.9-3.9-.4.1-1.7-.3-3-.9-1.6-.6-2-1.2-1.3-1.7.9-.6.9-1 0-2-1.7-1.7-5.7-2.6-6.4-1.5-.3.5-1.1.9-1.7.8-.9 0-.9-.2.1-.6.6-.2 1.2-1.1 1.2-1.8s.5-1.5 1.1-1.7c1.5-.5-2.9-5.8-5.9-6.9-1.3-.5-2.2-1.2-1.9-1.6 1-.9-1.2-4.3-2.8-4.3-.8 0-1.5.3-1.5.7zM89.7 75.5c0 .8-.4 1.5-.9 1.5-1 0-1.1-1.4-.1-2.3.9-1 1-.9 1 .8zM86.5 84c-.3.5-1.1 1-1.6 1-.6 0-.7-.5-.4-1 .3-.6 1.1-1 1.6-1 .6 0 .7.4.4 1zm-2.1 3.5c-.4.8-1.4 1.5-2.3 1.4-1 0-1.1-.2-.3-.6.6-.2 1-.9.6-1.4-.3-.5.2-.9 1-.9 1 0 1.3.6 1 1.5zm-8.6 1.7c-.3 1.2-3.5 4.8-4.2 4.8-.3 0 .2-1.4 1-3 1.5-2.9 3.7-4.2 3.2-1.8zm5 3.3c-.2.2-.7.3-1.2.4-.8 0-1.9 1.5-5.1 7.8-1 1.8-2.2 3.3-2.7 3.3s-.6.4-.3 1c.3.5.2 1-.3 1-.6 0-1.3-.7-1.6-1.6-.3-.8-.2-1.2.4-.9.6.3 1 .1 1-.5s.9-2 2-3.2c1.1-1.2 2-2.8 2-3.5 0-.8.4-1.2.9-.9.5.3 1.2-.5 1.5-1.9.4-1.7 1.1-2.2 2.2-1.8.8.3 1.4.7 1.2.8zM68.7 100c-.6 1.6-1.8 3-2.7 2.9-1 0-1.1-.2-.2-.6.6-.2 1-.8.7-1.3-.4-.7 2-4 3-4 .2 0-.2 1.3-.8 3zm1.3 8.5c0 .8-.7 1.5-1.6 1.5-1.4 0-1.4-.3-.4-1.5.7-.8 1.4-1.5 1.6-1.5.2 0 .4.7.4 1.5zm188 6c-.7.8-1.8 1.5-2.6 1.5-.7 0-1.1.8-.9 1.9.3 1.5-.1 1.8-1.2 1.4-1-.4-1.4-.2-1 .4.3.5 0 1-.7 1-.9 0-1.2-.7-.8-1.6.8-2.3 3.6-4.8 4.9-4.4.6.2 1.4-.1 1.8-.6.3-.6.9-1.1 1.2-1.1.3 0 0 .7-.7 1.5zm-199.2 4.6c-1 2.1-2.2 4.1-2.8 4.4-.6.4-.8 1.1-.5 1.6.4.5.2.9-.2.9-.5 0-1.7 2-2.8 4.5-1.1 2.5-2.3 4.5-2.6 4.5-.4 0-.9.9-1.2 2-.3 1.1-1.2 2-2 2-1.2 0-.9-1.1 1.2-5 1.4-2.7 3.2-5 3.9-5 .6 0 1.1-.3 1.1-.8-.3-1.9.3-3.3 2.3-5.2 1.2-1.1 1.9-2 1.5-2-.4 0-.2-1 .5-2.3.7-1.2 1.2-2.5 1.1-2.8-.1-.3.4-.6 1.1-.6.9 0 .8 1-.6 3.8zm4 2.9c-1 3.1-2.8 5-2.8 3 0-1.1 2.9-6 3.6-6 .1 0-.2 1.4-.8 3zm38.2.6c0 .8-.5 1.2-1 .9-.6-.4-.8-1.1-.5-1.6.9-1.4 1.5-1.1 1.5.7zm149.4 2.2c.2.4-.5.9-1.7.9-1.7.2-1.9 0-.7-.7 1.8-1.2 1.8-1.2 2.4-.2zm-191.1 3.9c-.7.3-1.3 1.3-1.3 2.4 0 1-.4 1.9-1 1.9-.5 0-1 .7-1 1.5s-.5 1.5-1.1 1.5c-.5 0-.8.4-.5.9.3.5-.2 1.9-1.2 3.2-1 1.3-2.2 3.3-2.7 4.4-.8 1.9-.8 1.9-1.3.1-.2-1 0-2.1.5-2.5.4-.3 1.8-2.7 3.1-5.4 1.3-2.6 2.8-4.7 3.4-4.7.5 0 .8-.7.4-1.5-.3-.8-.1-1.5.4-1.5.6 0 1-.8 1-1.7 0-1.4.2-1.5 1.3-.4 1 1.1 1 1.4 0 1.8zm6.1 10.1c-.3 2-1.1 4.4-1.9 5.2-1.3 1.2-1.5 1-1.5-1.8 0-1.8.5-3.2 1-3.2.6 0 .9-.3.9-.8-.4-2.1.2-4.2 1-3.7.5.3.7 2.2.5 4.3zm160.1-2.8c-.3.5-1.2 1-1.8 1-.7 0-.6-.4.3-1 1.9-1.2 2.3-1.2 1.5 0zm-2.7 6.5c-.1 1.3-.4 2.2-.7 2-.2-.3-.9.3-1.6 1.2-.8 1.1-1.4 1.3-1.9.5-.4-.7-.2-1.2.4-1.2.6 0 1.5-1.1 2-2.5 1.2-3.2 2-3.2 1.8 0zM46 142c0 .5-.8 1.4-1.7 1.9-1 .6-1.3 1.1-.5 1.1 1 0 1 .4 0 2s-1.4 1.7-2 .6c-1.1-2 .1-4.6 2.1-4.6 1.4 0 1.4-.2.1-1-1.3-.8-1.2-1 .3-1 .9 0 1.7.4 1.7 1zm9.7 3.2c-.3.8-.6.5-.6-.6-.1-1.1.2-1.7.5-1.3.3.3.4 1.2.1 1.9zm4.7 4.4c-.1 1.5-.9 3.1-1.6 3.5-.7.5-.9.9-.5.9s.3.9-.2 1.9c-.8 1.4-.7 2 .4 2.5.8.3 1.5 1 1.5 1.6 0 .6-.4.8-1 .5-.5-.3-1 .1-1 1.1 0 1.4-.2 1.5-1.7.3-1-.8-1.4-.9-1-.2.4.6.3 1.4-.3 1.8-.6.4-.8 1-.6 1.4.3.4-.1.8-.8.8-1.3 0-1.2-2.1.1-5.7.4-.8.5-1.9.4-2.5-.1-.5.4-1.4 1.1-2 .7-.5 1.3-1.5 1.4-2 .2-2 2.8-7.4 3.5-7 .3.3.5 1.7.3 3.1zm-12.2-.4c-.7.7-1.2.8-1.2.2 0-1.4 1.2-2.6 1.9-1.9.2.3-.1 1.1-.7 1.7zm180.8.4c0 .2-1.3 2.5-3 5.1-1.6 2.6-3 5.5-3 6.4 0 2.7-1.9 3.3-4 1.4-1.3-1.2-1.7-2.3-1.1-3.4.5-.9.8-2.8.7-4.3-.1-1.4.2-2.4.6-2.2.3.2.9 0 1.3-.6.3-.5 0-1-.7-1-1 0-.9-.3.2-1 .9-.6 1.9-.5 2.8.3 1.1.8 1.6.7 2.3-.6.8-1.3 3.9-1.4 3.9-.1zm-187.4 4.1c-.6 1.8-1.7 3.3-2.4 3.3-.8 0-1-.5-.5-1.3.4-.6.8-1.7.9-2.2 0-.6.2-1.5.2-2.1.1-.6.8-1.1 1.5-1.1 1 0 1.1.8.3 3.4zm174.8-.7c-.6.6-1 .3-1-1s.4-1.6 1-1c.7.7.7 1.3 0 2zm-1.4 3.4c0 .2-.6.9-1.4 1.5-1.1.9-1.6.9-2.2 0-.4-.7-.3-.9.4-.5.6.3 1.3.2 1.7-.4.6-1 1.5-1.4 1.5-.6zm-170.2 3.1c-.3 2.7-1 2.5-1.5-.5-.2-1.1.2-2 .7-2 .5 0 .9 1.1.8 2.5zm-1.6 4.8c.3 1.5 0 2.4-.9 2.4-1.4 0-1.6-.7-.7-3.1.8-2.1 1.1-2 1.6.7zm176.2 1.8c-.6 1-1.5 4.7-1.6 6.6-.1.7-.5 1-1 .7-.8-.5-1.2.9-.9 3.1 0 .6-1.2 1.9-2.8 3-1.6 1-2.7 2.3-2.4 2.8.3.4.2 2.4-.2 4.4-.5 2.8-1 3.4-2.6 3-1-.3-1.7-.1-1.3.4.3.5 0 .9-.6.9-.5 0-1.8 1.6-2.7 3.5-.9 1.9-2.1 3.5-2.5 3.5-.5 0-.4-.8.1-1.9.6-1 .7-2.1.4-2.5-.3-.3-.1-.6.5-.6.7 0 1.1-1.1 1-2.4-.1-1.4-.6-2.2-1-2-.4.3-.8 0-.8-.5 0-.6.9-1.1 2.1-1.1 1.1 0 1.7-.5 1.4-1-.3-.6-.2-1 .3-1s1.2-.9 1.5-2.1c.3-1.2 1-1.8 1.5-1.5.6.3 1.2-.1 1.6-.9.3-.8 1.3-1.5 2.1-1.5.9 0 1.4-.4 1.1-.9-.3-.4.1-1.7.8-2.7 1.2-1.6 1.2-2.2-.5-4.5-2.1-3-2.5-4.4-.9-3.4.6.3 1 .2 1-.4 0-.6 1-2 2.2-3.1 2.1-1.9 2.4-2 3.5-.4.7.9 1 2.1.7 2.5zm-89-1.5c.5 1.3.4 1.4-.7.6-.8-.7-1.8-.8-2.2-.4-.5.4-.5.1-.1-.6 1-1.7 2.3-1.5 3 .4zm80.6-1.2c0 .3-.4.8-1 1.1-.5.3-1 .1-1-.4 0-.6.5-1.1 1-1.1.6 0 1 .2 1 .4zm-174.5 5.3c-.8 2.5-1.2 5-.9 5.5.3.4-.2.5-1.1.2-1.7-.7-1.1-4.3.9-5.6.6-.4.7-1 .3-1.4-.6-.6.9-3.4 1.9-3.4.2 0-.3 2.1-1.1 4.7zm153.8-3.4c-.2.4-.3 1.5-.4 2.4 0 1.1-.3 1.3-.6.5-.2-.6-.8-1-1.2-.8-.4.3-.7-.4-.8-1.4-.1-1.2.4-1.7 1.5-1.6.9.2 1.6.6 1.5.9zm-61.1 3.4c-.6.3-1 .8-.7 1.3.3.4.1 1.8-.3 3.1-.7 1.9-1 2-1.5.6-.4-1-.2-1.7.3-1.7s.7-.6.4-1.4c-.3-.8 0-1.7.5-2.1.6-.3.8-1.2.5-1.8-.4-.7-.1-.6.7.2 1.1 1 1.1 1.5.1 1.8zm-88.6 4c-1 1-1.9-.5-1-1.8.6-1.1.8-1.1 1.2 0 .2.7.1 1.5-.2 1.8zm150.4-.5c0 .6-.8.7-1.7.4-1.6-.5-1.6-.4-.3.6 1 .8 1.6 3.3 1.7 6.8.1 3 .3 6.4.6 7.5.2 1.1-.1 2.6-.7 3.4-.8 1.2-.8 1.3.2.7 1.1-.7 1.1-.4 0 1.3-.7 1.2-2 2.1-2.8 2.1-.9 0-1.1-.3-.5-.8 1.3-.9 1.6-4.2.4-4.2-.9 0-.4-6.3.6-8 .3-.6.1-1-.5-1-.7 0-1-.7-.7-1.5.4-.8.2-1.7-.3-2-.6-.4-.6-1.5.2-2.8.6-1.2 1.1-2.3 1-2.5-.8-1 .1-2 1.3-1.6.8.4 1.5 1.1 1.5 1.6zm20.5 1.9c-1 1.5-2.5 1-1.9-.6.4-.8 1-1.2 1.5-.9.5.3.7 1 .4 1.5zm-75.7 1.3c-.1 1.4-.5 2.3-.9 2-.7-.4 0-4.4.7-4.4.2 0 .3 1.1.2 2.4zm-102.1 2c-.1 1.3-.9 3.1-1.6 3.9-.7.9-.9 2.2-.5 2.9.5 1 .4 1-.6.1-1.1-1-1-1.6.6-3.4 1-1.2 1.8-2.3 1.7-2.5-.5-.8-.3-3.4.2-3.4.3 0 .4 1.1.2 2.4zm176.3-.2c0 .4-.3.8-.7.9-.5 0-1.6.2-2.5.4-1 .2-1.5-.2-1.2-.9.5-1.3 4.4-1.6 4.4-.4zm-171 2.2c0 .3-.4.8-1 1.1-.5.3-1 .1-1-.4 0-.6.5-1.1 1-1.1.6 0 1 .2 1 .4zm95.3 1.7c-.8.8-1.3.7-1.8-.2-.5-.8-.4-1 .3-.5.7.4 1.2.2 1.2-.5s.3-.9.7-.6c.4.4.2 1.2-.4 1.8zm47.4-1.5c-.3.4-.2 1.6.4 2.8 1 2 .9 2-.5.2-1.4-1.7-1.3-3.6.1-3.6.4 0 .3.3 0 .6zm22.5 3.5c.2.2.1.3-.1.2-.2-.2-.9.5-1.6 1.4-.9 1.3-1.4 1.3-2 .3-.6-.9-.4-1.1.5-.5 1 .6 1.2.4.7-.7-.3-1-.1-1.5.8-1.4.8.1 1.6.4 1.7.7zm-79.2.3c0 .3-.4.8-1 1.1-.5.3-1 .1-1-.4 0-.6.5-1.1 1-1.1.6 0 1 .2 1 .4zm-78.7 2.7c-.8.8-1.3.7-1.8-.2-.5-.8-.4-1 .3-.5.7.4 1.2.2 1.2-.5s.3-.9.7-.6c.4.4.2 1.2-.4 1.8zm-10.1-.4c-.6.2-1 .9-.7 1.3.3.5.1 1.1-.5 1.5-.5.3-1 0-1-.8 0-1.7 1-2.7 2.4-2.6.6 0 .5.3-.2.6zm-6.3 2c-.6.7-.8 1.3-.4 1.3.5 0 .1.8-.8 1.8-1 1-1.4 2.2-1 2.7.5.4.2.5-.5.1-1.1-.7-1.1-1.1.1-2.4.8-1 1.3-2.4 1.2-3.3-.2-.9.3-1.6 1.1-1.6 1 0 1.1.4.3 1.4zm153.1-.2c0 .8-.4 1.5-.9 1.5s-1.1-.7-1.5-1.5c-.3-.9 0-1.5.9-1.5.8 0 1.5.7 1.5 1.5zm18 3.5c0 .5-.2 1-.4 1-.3 0-.8-.5-1.1-1-.3-.6-.1-1 .4-1 .6 0 1.1.4 1.1 1zm-167.1 3.3c0 .9-.2.8-.6-.1-.2-.6-1-.9-1.5-.6-.7.4-.8.2-.4-.5.9-1.3 2.6-.5 2.5 1.2zm149.3 2.5c-.6.2-.9.9-.6 1.4.4.6.2.8-.3.5-.6-.4-1.3-1.6-1.6-2.7-.4-1.7-.3-1.8 1.6-.8 1.4.7 1.7 1.3.9 1.6zM26 196c0 .5-.5 1-1.1 1-.5 0-.7-.5-.4-1 .3-.6.8-1 1.1-1 .2 0 .4.4.4 1zm180.1 1.7c-1.2 2-1.4 1.4-.5-1.2.4-.9.9-1.4 1.1-1.1.3.2 0 1.3-.6 2.3zm-174.4-.2c0 .8-.4 1.2-.9.9-.5-.3-.6-1-.3-1.5.9-1.3 1.2-1.1 1.2.6zm-1.9 3c-.3.3-.9-.2-1.2-1.2-.6-1.4-.5-1.5.5-.6.7.7 1 1.5.7 1.8zm-4.8-.4c0 1.5-1.8 1.9-2.3.6-.3-.8.1-1.4.9-1.4s1.4.4 1.4.8zm158.5.9c-.3.5 0 1 .7 1.1 1 0 1 .2-.1.6-1 .4-1 .7-.1 1.3.9.5.8.9-.3 1.3-1 .4-1.3-.2-1.1-2.1.2-3.2.2-3.2 1-3.2.3 0 .2.4-.1 1zm-144.1 2.5c.3.8.1 1.5-.4 1.5-.6 0-1-.7-1-1.5s.2-1.5.4-1.5.6.7 1 1.5zm-11.7 2.7c-.3.7-.5.2-.5-1.2s.2-1.9.5-1.3c.2.7.2 1.9 0 2.5zm-5.4.7c-.4.3-1.1 1-1.5 1.5-.4.4-.6-.1-.5-1.2.1-1.2.6-1.8 1.5-1.5.7.3 1 .9.5 1.2zm122.2.1c-.3.5-1.3.6-2.1.3-1.2-.4-1.3-.8-.3-1.4 1.5-.9 3.2-.2 2.4 1.1zm-118.1 1.5c.3.9 0 1.5-.9 1.5s-1.2-.6-.9-1.5c.4-.8.7-1.5.9-1.5.2 0 .5.7.9 1.5zm169.2 1c0 2.2-.2 2.3-1.4 1.1-.8-.8-1.1-1.9-.8-2.5 1.2-1.9 2.2-1.2 2.2 1.4zm-87.6.5c0 .5-.2 1-.4 1-.3 0-.8-.5-1.1-1-.3-.6-.1-1 .4-1 .6 0 1.1.4 1.1 1zm-4.1 2.6c-.6.8-2 1.4-3 1.4-1.1 0-1.9.5-1.9 1.2 0 .9-.3.9-1.2 0-.9-.9-1.9-.7-4.2.7-1.7 1.1-4.2 1.8-5.6 1.7-1.4-.1-3 .2-3.7.6-.6.5-1.4.5-1.8-.2-.3-.6-1.1-.8-1.6-.4-.5.3-.7 1-.4 1.5.4.5 0 .9-.7 1-.7 0-2.1.2-3.1.4-1.8.3-1.8.2-.2-1.5 1-1.1 2-1.9 2.4-1.8.3 0 .8-.1 1.1-.2.3-.1 1.2-.3 2-.5.9-.1 4.8-1.2 8.7-2.3 3.9-1.1 7.4-1.7 7.7-1.4.3.3.6 0 .6-.7 0-.8.8-1.1 2-.8 1.1.3 2 .1 2-.5 0-.5.5-.6 1-.3.8.5.7 1.1-.1 2.1zm-29.9 8c0 .8-1.9 1.3-2.4.6-.3-.5.1-.9.9-.9s1.5.2 1.5.3zm-3.5 1.3c.3.6-.4.9-1.5.8-1.1-.1-2-.5-2-.9 0-1.1 2.8-1 3.5.1zm-6.5 2c0 .6-.4 1.3-1 1.6-.5.3-1-.1-1-.9 0-.9.5-1.6 1-1.6.6 0 1 .4 1 .9z"/><path d="M221.4 150.7c.3.6.2 1.4-.4 1.8-1.2.7-.4 2.5 1.1 2.5 1.1 0 .7-3.6-.6-4.7-.4-.5-.5-.3-.1.4zM217 163.9c0 .6.4 1.3 1 1.6.6.3.7-.1.4-.9-.7-1.8-1.4-2.1-1.4-.7zM214.4 170.2c-1.1 1.7.6 2.2 2.2.7 1.3-1.4 1.3-1.6-.1-1.6-.9 0-1.8.4-2.1.9zM209.1 184.6c0 1.1.3 1.4.6.6.3-.7.2-1.6-.1-1.9-.3-.4-.6.2-.5 1.3zM256.7 83c-.8 1.1-1.7 1.7-2.2 1.2-.5-.4-.5-.1-.1.6s.1 1.5-.9 1.8c-1 .4-1.3 1.3-1 2.5.5 1.3.1 1.9-1 1.9-.9 0-1.3.4-1 1 .3.5.1 1-.5 1-1.2 0-4.9 3.9-5 5.3 0 .4-1.2 1.9-2.6 3.2-1.5 1.4-2.3 2.5-1.8 2.5.5 0 .4.4-.1.8-.6.4-2.3 2.6-3.9 4.9-1.6 2.4-3.1 4.3-3.5 4.3-.3 0-.7 1.1-.7 2.4-.1 1.6.3 2.3 1.1 2 .7-.3 1.6-.1 1.9.4.3.5-.7.8-2.3.6-2.2-.3-3.1.2-3.9 2.1-1.3 2.8-.2 3.4 1.8 1 .7-.8 1.7-1.2 2.3-.8.6.3.7.1.3-.5-.8-1.3 2-1.2 4.1.1 1.6 1 2.9-1 3.2-4.9 0-.8.5-1.3.9-1 .5.3.9-.2.9-1 0-1-.7-.8-2.5.8-1.4 1.3-2.2 1.7-1.8 1 .4-.7.2-1.2-.5-1.2-.8 0-.8-.4.2-1.6 1-1.2 1-1.7.1-2.3-.9-.5-.4-1.5 1.6-3.2 2.8-2.5 6.3-2.9 4.3-.5-.6.7-.6 1.7-.1 2.6.8 1.2 1 1 1-.9 0-1.6.4-2.1 1.4-1.8 1 .4 1.3.1.9-.8-.3-.8-.9-1.3-1.3-1-1.2.8-2.1-1.1-1.4-2.9.3-.9 1.1-1.3 1.8-.9.6.3.8.3.4-.2-.4-.4.1-1.9 1.2-3.3 1.1-1.3 1.7-2.8 1.4-3.3-.3-.5-.2-.9.3-.8 1.8.3 3.6-.1 3-.8-.4-.3.4-2.1 1.8-3.9 1.4-1.8 2.5-4.1 2.5-5.1 0-1.4.2-1.5.9-.5.7 1.1 1 1 1.5-.3.8-2.2.8-2.5-.3-2.5-.6 0-1.6.9-2.4 2zM240 119.5c0 1.2-1.9 1.2-2.3 0-.4-.9-.1-1.2.9-.8.7.3 1.4.7 1.4.8zM149.4 91.2c-.5.7-.2.9.7.4.8-.4.5 0-.5.8-1.7 1.4-1.7 1.6-.3 1.6.9 0 2.1-.9 2.7-2 .8-1.6.8-2-.4-2-.8 0-1.8.5-2.2 1.2z"/><path d="M252.7 96c-1.5 1.6-2.5 3-2.2 3 .3 0 .1.9-.5 2-1.2 2.2-.4 2.5 2 1 1.1-.7 1.1-1 .2-1-.7 0-1-.5-.7-1 .4-.6 1.1-.7 1.7-.4.6.4.8.2.5-.3-.4-.6.3-2.2 1.4-3.7 2.8-3.6.8-3.3-2.4.4zM258.4 105.5c.3 2.3 1.2 2.6 1.3.5.1-1.1-.2-2-.7-2-.4 0-.7.7-.6 1.5zM236.3 123.2c.1.6-.4 1.3-1.2 1.6-1 .3-1.1 0-.5-.9.6-1.2.5-1.2-.9 0-1.6 1.3-1.6 1.5-.1 3.2 1.9 2.1 2.4 2 2.8-.6.1-.9.8-2 1.5-2.4 1-.6.9-1-.3-1.4-.9-.4-1.5-.1-1.3.5zM229.3 140.5c0 .8.4 1.2.9.9.5-.3.6-1 .3-1.5-.9-1.3-1.2-1.1-1.2.6z"/></svg>