<?xml version="1.0" encoding="utf-8"?>
<svg version="1.1" xmlns="http://www.w3.org/2000/svg" viewBox="0 0 512 341.3">
<rect y="0" fill="#000000" width="512" height="341.3"/>
<g>
<path d="m348.90103,252.17498l0,11.53223l-8.48165,0c-22.70522,0 -37.93077,-1.97652 -45.68035,-5.9274c-7.66084,-3.95088 -11.49126,-11.82449 -11.49126,-23.62516l0,-19.13956c0,-8.06195 -2.46241,-13.64081 -7.38354,-16.73656c-4.92483,-3.09792 -13.86124,-4.6458 -26.80925,-4.6458l-8.343,0l0,-11.45213l8.343,0c13.04044,0 21.97685,-1.5219 26.80925,-4.5657c4.92113,-3.09575 7.38354,-8.62049 7.38354,-16.57636l0,-19.21966c0,-11.80067 3.83042,-19.64809 11.49126,-23.54506c7.74958,-3.95131 22.97513,-5.92675 45.68035,-5.92696l8.48165,0l0,11.45213l-9.30245,0c-12.85557,0.00022 -21.24478,1.17465 -25.16394,3.52396c-3.92285,2.34888 -5.88243,7.28693 -5.88243,14.81633l0,19.86046c0,8.38235 -2.09638,14.46778 -6.29283,18.25846c-4.10402,3.79068 -11.16959,6.35387 -21.20042,7.68743c10.12325,1.4418 17.23319,4.05912 21.33722,7.8498s6.15603,9.85013 6.15603,18.17836l0,19.86046c0,7.5294 1.95958,12.46745 5.88243,14.81633c3.91916,2.34888 12.30837,3.5244 25.16394,3.5244l9.30245,0" fill="#fff" id="svg_7" transform="translate(-65 -86) scale(0.73137 1.3673)"/>
<path d="m-516.10069,251.9376l0,11.53223l-8.53349,0c-22.85398,0 -38.183,-1.97436 -45.98335,-5.92523c-7.71103,-3.95088 -11.56655,-11.82665 -11.56282,-23.62516l0,-19.13956c-0.00372,-8.06195 -2.47855,-13.64081 -7.43564,-16.73873c-4.95709,-3.09575 -13.95205,-4.64363 -26.98489,-4.64363l-8.39579,0l0,-11.45213l8.39579,0c13.12587,0 22.12083,-1.5219 26.98489,-4.5657c4.95709,-3.09575 7.43192,-8.62265 7.43564,-16.57636l0,-19.22182c-0.00372,-11.79851 3.85179,-19.64679 11.56282,-23.54506c7.80035,-3.94979 23.12937,-5.92523 45.98335,-5.92545l8.53349,0l0,11.45213l-9.35967,0c-12.94352,0 -21.38769,1.17465 -25.33252,3.52461c-3.94855,2.34888 -5.92097,7.28693 -5.92097,14.81416l0,19.86046c0,8.38235 -2.11011,14.46995 -6.33034,18.26062c-4.13091,3.79068 -11.24649,6.35387 -21.33931,7.68743c10.18585,1.4418 17.3461,4.05695 21.47328,7.84763c4.13091,3.79068 6.19636,9.85229 6.19636,18.18052l0,19.86046c0,7.52723 1.97242,12.46745 5.92097,14.81633c3.94483,2.34888 12.38901,3.52223 25.33252,3.52223l9.35967,0" fill="#fff" id="svg_8" transform="translate(-65 -86) scale(-0.73137 1.3673)"/>
</g>
</svg>
